<svg width="119" height="119" viewBox="0 0 119 119" fill="none" xmlns="http://www.w3.org/2000/svg">
<path d="M69.1667 69.7222L81.4584 82.0139" stroke="white" stroke-width="8.5" stroke-linejoin="round"/>
<path d="M81.1303 91.9711C78.2899 89.1307 78.2899 84.5258 81.1303 81.6859C83.9701 78.8456 88.5751 78.8456 91.4154 81.6859L106.369 96.64C109.21 99.4803 109.21 104.085 106.369 106.925C103.53 109.766 98.9247 109.766 96.0843 106.925L81.1303 91.9711Z" stroke="white" stroke-width="8.5" stroke-linecap="round"/>
<path d="M79.0001 45.1389C79.0001 26.1311 63.5913 10.7222 44.5834 10.7222C25.5756 10.7222 10.1667 26.1311 10.1667 45.1389C10.1667 64.1467 25.5756 79.5556 44.5834 79.5556C63.5913 79.5556 79.0001 64.1467 79.0001 45.1389Z" stroke="white" stroke-width="8.5" stroke-linejoin="round"/>
</svg>
