<svg width="24" height="24" viewBox="0 0 24 24" fill="none" xmlns="http://www.w3.org/2000/svg">
<path fill-rule="evenodd" clip-rule="evenodd" d="M11.1189 3.01964C11.7033 2.93348 12.3355 3.13175 12.7991 3.59539L20.4047 11.2141C21.1659 11.9753 21.2036 13.1832 20.4804 13.9063L13.9063 20.4804C13.1832 21.2036 11.9753 21.1659 11.2141 20.4047L3.59539 12.7991C3.13175 12.3355 2.93348 11.7033 3.01964 11.1189L4.00663 4.31125C4.0295 4.15345 4.15345 4.0295 4.31125 4.00663L11.1189 3.01964Z" stroke="white" stroke-width="2" stroke-linecap="round" stroke-linejoin="round"/>
<path fill-rule="evenodd" clip-rule="evenodd" d="M7.73009 11.2699C8.70354 12.2434 10.2965 12.2434 11.2699 11.2699C12.2434 10.2965 12.2434 8.70354 11.2699 7.73009C10.2965 6.75664 8.70354 6.75664 7.73009 7.73009C6.75664 8.70354 6.75664 10.2965 7.73009 11.2699Z" stroke="white" stroke-width="2" stroke-linecap="round" stroke-linejoin="round"/>
</svg>
